<svg width="1719" height="1549" viewBox="0 0 1719 1549" fill="none" xmlns="http://www.w3.org/2000/svg">
<path d="M1682.3 438.251C1559.22 371.291 1450.14 354.422 1358.1 388.085C1291.86 412.308 1249.52 457.671 1225.04 492.958C1189.95 460.746 1129.66 417.058 1039.93 389.701C1197.26 329.915 1307.36 194.632 1307.36 37.5961C1307.36 16.9417 1290.61 0.192291 1269.96 0.192291C1249.31 0.192291 1232.56 16.9417 1232.56 37.5961C1232.56 208.569 1065.12 347.674 859.319 347.674C653.515 347.674 486.081 208.577 486.081 37.5961C486.081 16.9417 469.331 0.192291 448.677 0.192291C428.022 0.192291 411.273 16.9417 411.273 37.5961C411.273 194.632 521.375 329.915 678.703 389.701C588.979 417.051 528.684 460.746 493.599 492.958C469.114 457.671 426.773 412.308 360.538 388.085C268.48 354.414 159.41 371.298 36.3293 438.251L0.0924072 457.963L23.2529 492.098C100.791 606.419 188.503 668.008 283.95 675.167C290.182 675.638 296.331 675.855 302.39 675.855C369.777 675.855 425.898 648.274 463.354 622.847L604.913 1233.12C569.708 1279.64 548.725 1332.25 548.725 1380.77C548.725 1548.16 782.506 1548.16 859.326 1548.16C936.146 1548.16 1169.93 1548.16 1169.93 1380.77C1169.93 1333.12 1149.45 1280.39 1113.75 1233.1L1255.29 622.847C1292.75 648.274 1348.87 675.855 1416.25 675.855C1422.31 675.855 1428.47 675.631 1434.7 675.167C1530.14 668.008 1617.85 606.419 1695.39 492.098L1718.55 457.963L1682.3 438.251ZM1189.57 562.761L1189.12 563.906L1191.55 566.531L1051.72 1169.41C994.578 1123.64 927.416 1098.72 859.304 1098.72C787.66 1098.72 720.453 1127.22 666.973 1169.72L636.96 1040.34C696.649 1013.12 814.352 936.089 831.655 747.304C844.993 601.811 775.265 509.558 705.334 459.781C748.386 447.206 799.428 438.85 859.296 438.85C1054.21 438.865 1156.25 527.063 1189.57 562.761ZM617.256 495.943C657.181 512.513 772.347 575.045 757.184 740.482C744.556 878.225 666.719 940.308 619.642 965.586L527.075 566.524L529.499 563.898L529.058 562.769C544.019 546.752 572.708 520.315 617.256 495.943ZM288.925 600.532C226.894 595.662 166.951 556.732 110.344 484.699C196.971 444.73 272.041 435.738 333.929 458.015C390.23 478.281 423.661 521.041 439.692 547.306C411.789 569.763 355.743 605.813 288.925 600.532ZM859.311 1473.37C623.517 1473.37 623.517 1403.68 623.517 1380.78C623.517 1298.94 729.153 1173.53 859.311 1173.53C989.469 1173.53 1095.1 1298.94 1095.1 1380.78C1095.1 1403.68 1095.11 1473.37 859.311 1473.37ZM1429.7 600.532C1362.86 605.805 1306.85 569.763 1278.93 547.306C1294.96 521.041 1328.39 478.281 1384.69 458.015C1446.59 435.738 1521.66 444.73 1608.28 484.699C1551.68 556.732 1491.73 595.654 1429.7 600.532Z" fill="#4B572A"/>
<path d="M719.353 1325.26C703.09 1341.52 703.09 1367.89 719.353 1384.15C735.617 1400.41 761.986 1400.41 778.242 1384.15C794.505 1367.89 783.927 1352.1 767.664 1335.84C751.401 1319.58 735.617 1309 719.353 1325.26Z" fill="#4B572A"/>
<path d="M954.123 1335.84C937.86 1352.1 927.282 1367.89 943.545 1384.15C959.808 1400.41 986.171 1400.41 1002.43 1384.15C1018.7 1367.89 1018.7 1341.52 1002.43 1325.26C986.178 1309 970.386 1319.58 954.123 1335.84Z" fill="#4B572A"/>
</svg>
