<svg width="1281" height="613" viewBox="0 0 1281 613" fill="none" xmlns="http://www.w3.org/2000/svg">
<path d="M110.339 492.395C106.224 490.337 100.307 488.793 92.5905 487.764C85.3881 486.736 79.2146 485.192 74.07 483.134C63.7809 477.99 56.3212 470.016 51.6911 459.212C47.5754 448.408 45.5176 435.804 45.5176 421.399C45.5176 401.335 48.6043 378.699 54.7778 353.491C61.4658 328.282 69.6971 302.817 79.4718 277.094C89.761 251.371 100.05 227.191 110.339 204.555C121.143 181.404 130.661 162.112 138.892 146.678C147.123 130.73 152.782 120.184 155.869 115.039C165.644 100.12 176.962 89.8306 189.823 84.1715C203.199 77.998 217.861 74.9113 233.809 74.9113C268.278 74.9113 282.94 77.998 277.796 84.1715C266.992 96.5185 256.188 112.21 245.385 131.245C234.581 149.765 224.292 168.8 214.517 188.349C205.257 207.899 197.026 225.39 189.823 240.824C186.222 247.512 182.878 254.457 179.791 261.66C176.705 268.862 173.618 276.065 170.531 283.267C172.074 284.81 176.705 286.097 184.421 287.126C192.653 287.64 198.826 287.897 202.942 287.897C214.775 287.897 227.893 281.466 242.298 268.605C257.217 255.744 271.108 239.281 283.969 219.217C297.345 198.639 308.149 177.031 316.38 154.395C325.126 131.759 329.499 110.666 329.499 91.1167C329.499 71.5673 324.097 55.6191 313.293 43.2721C302.49 30.4106 284.226 23.9799 258.504 23.9799C241.526 23.9799 221.977 26.8094 199.855 32.4684C178.248 38.1275 156.898 46.616 135.805 57.9341C114.712 69.2522 96.449 83.6571 81.0152 101.149C65.5815 118.126 55.5495 138.447 50.9194 162.112C48.8615 161.598 43.717 160.311 35.4856 158.254C27.2543 155.681 19.2802 151.823 11.5633 146.678C4.36086 141.019 0.759644 133.817 0.759644 125.071C0.759644 98.8336 12.335 76.4546 35.4856 57.9341C58.6363 39.4136 90.2755 25.266 130.403 15.4913C170.531 5.2021 215.803 0.0575151 266.22 0.0575151C318.181 0.0575151 356.508 10.0895 381.202 30.1533C405.896 49.7028 418.243 74.6541 418.243 105.007C418.243 129.701 410.783 155.424 395.864 182.176C381.459 208.928 361.653 233.107 336.444 254.715C311.75 276.322 283.712 292.013 252.33 301.788C245.642 303.845 235.867 305.903 223.006 307.961C210.659 310.019 199.084 311.048 188.28 311.048C182.106 311.048 176.447 310.533 171.303 309.504C166.673 308.476 163.329 306.932 161.271 304.874C147.38 338.314 135.805 369.696 126.545 399.02C117.285 428.344 112.654 450.981 112.654 466.929C112.654 475.16 114.198 481.334 117.285 485.449C118.313 486.478 118.828 488.022 118.828 490.08C118.828 493.681 115.998 494.452 110.339 492.395Z" fill="#B0A780"/>
<path d="M489.998 485.449C452.442 485.449 425.176 476.961 408.199 459.984C391.736 443.007 383.505 420.628 383.505 392.847C383.505 371.754 387.878 348.603 396.624 323.395C403.312 302.817 412.315 281.981 423.633 260.888C434.951 239.281 448.07 219.474 462.989 201.468C477.908 182.948 494.371 168.286 512.377 157.482C530.383 146.164 549.418 140.505 569.482 140.505C595.205 140.505 616.04 144.62 631.989 152.852C648.451 160.569 656.683 173.43 656.683 191.436C656.683 204.812 651.281 221.532 640.477 241.596C626.072 269.377 604.979 292.27 577.199 310.276C549.418 328.282 518.293 338.571 483.824 341.144C476.108 362.237 471.477 379.471 469.934 392.847C469.42 395.419 469.162 397.991 469.162 400.564C469.162 402.622 469.162 404.937 469.162 407.509C469.162 424.486 473.021 436.833 480.738 444.55C488.455 451.752 497.972 455.354 509.29 455.354C530.383 455.354 548.903 449.952 564.852 439.148C580.8 428.344 594.69 414.711 606.523 398.249C618.87 381.786 629.416 365.323 638.162 348.861C643.307 339.6 647.68 331.112 651.281 323.395C654.882 315.164 657.712 309.247 659.769 305.646C662.342 301.53 665.171 299.473 668.258 299.473C671.345 299.473 674.174 301.273 676.746 304.874C679.319 307.961 679.576 311.562 677.518 315.678C670.83 329.054 661.57 346.803 649.737 368.924C637.905 391.046 624.529 410.596 609.61 427.573C593.147 447.122 575.398 461.784 556.363 471.559C537.843 480.819 515.721 485.449 489.998 485.449ZM493.856 318.765C517.007 310.019 537.328 294.328 554.82 271.692C572.826 249.056 584.916 224.104 591.089 196.838C591.604 194.266 591.861 191.951 591.861 189.893C592.375 187.835 592.632 185.777 592.632 183.719C592.632 173.43 589.546 168.286 583.372 168.286C578.228 168.286 572.826 171.887 567.167 179.089C558.935 188.864 550.19 202.24 540.929 219.217C531.669 235.68 523.438 251.885 516.235 267.833C509.033 283.782 503.631 295.871 500.03 304.103L493.856 318.765Z" fill="#B0A780"/>
<path d="M758.533 486.221C730.238 486.221 706.059 478.761 685.995 463.842C665.931 448.408 655.899 425.258 655.899 394.39C655.899 370.725 660.529 345.259 669.789 317.993C679.564 290.727 692.168 264.747 707.602 240.053C723.55 214.844 741.042 194.008 760.077 177.546C771.909 167.257 784.771 158.768 798.661 152.08C812.552 145.392 826.442 141.791 840.332 141.276C863.997 139.733 884.833 142.563 902.839 149.765C920.845 156.967 929.848 171.115 929.848 192.208C929.848 197.352 929.076 203.269 927.533 209.957C926.504 216.13 924.189 223.075 920.588 230.792C915.443 242.11 908.755 253.171 900.524 263.975C892.807 274.779 886.119 282.238 880.46 286.354C874.801 290.47 869.142 293.556 863.483 295.614C857.824 297.157 852.679 297.929 848.049 297.929C842.905 297.929 838.274 297.157 834.159 295.614C830.558 294.071 827.471 292.27 824.899 290.212C831.586 279.409 838.274 267.319 844.962 253.943C851.65 240.567 857.567 228.22 862.711 216.902C867.856 205.069 870.943 196.066 871.972 189.893C872.486 187.835 872.743 186.034 872.743 184.491C873.258 182.948 873.515 181.404 873.515 179.861C873.515 169.572 869.656 164.427 861.94 164.427C855.766 164.427 849.078 168.8 841.876 177.546C829.014 191.951 816.667 209.957 804.835 231.564C793.002 253.171 781.941 276.322 771.652 301.016C769.08 307.704 765.479 316.964 760.848 328.797C756.733 340.629 752.874 353.491 749.273 367.381C746.186 380.757 744.643 393.619 744.643 405.966C744.643 419.856 747.73 431.688 753.903 441.463C760.591 450.723 772.424 455.354 789.401 455.354C805.864 455.354 821.04 450.723 834.93 441.463C849.335 431.688 862.711 419.341 875.058 404.422C887.405 388.988 898.466 372.783 908.241 355.806C918.016 338.314 926.761 321.852 934.478 306.418C936.022 302.817 938.594 301.016 942.195 301.016C945.282 301.016 948.111 302.559 950.684 305.646C953.256 308.733 953.513 312.334 951.455 316.45C944.253 330.855 936.279 345.517 927.533 360.436C919.302 375.355 910.299 390.017 900.524 404.422C884.061 429.116 863.997 448.923 840.332 463.842C816.667 478.761 789.401 486.221 758.533 486.221Z" fill="#B0A780"/>
<path d="M1131.98 478.504C1109.35 478.504 1093.14 470.53 1083.37 454.582C1073.59 438.634 1068.96 420.113 1069.48 399.02C1053.53 428.859 1037.06 449.18 1020.09 459.984C1003.62 470.273 986.905 475.417 969.928 475.417C949.349 475.417 935.202 470.016 927.485 459.212C919.768 448.408 915.91 435.547 915.91 420.628C915.91 408.795 917.196 396.962 919.768 385.13C922.855 372.783 926.199 361.465 929.8 351.176C936.488 331.626 943.69 311.82 951.407 291.756C959.638 271.177 967.613 252.657 975.33 236.194C983.046 219.731 988.963 207.642 993.078 199.925C1003.37 181.404 1014.94 168.8 1027.8 162.112C1040.67 154.91 1053.78 151.308 1067.16 151.308C1071.28 151.308 1075.39 151.566 1079.51 152.08C1084.14 152.595 1088.25 153.366 1091.85 154.395C1098.54 155.939 1103.69 157.482 1107.29 159.025C1110.89 160.054 1112.69 162.112 1112.69 165.199C1112.69 166.742 1111.92 169.057 1110.37 172.144C1103.17 184.491 1094.17 200.439 1083.37 219.989C1073.08 239.024 1062.53 259.602 1051.73 281.724C1040.92 303.845 1031.15 325.71 1022.4 347.317C1014.17 368.41 1008.25 387.445 1004.65 404.422C1004.14 406.994 1003.62 409.31 1003.11 411.367C1003.11 413.425 1003.11 415.483 1003.11 417.541C1003.11 426.287 1006.45 430.66 1013.14 430.66C1019.83 430.66 1027.03 425.515 1034.75 415.226C1042.47 404.937 1049.93 392.59 1057.13 378.185C1064.85 363.78 1071.28 350.661 1076.42 338.829C1082.08 326.482 1085.68 318.765 1087.22 315.678C1095.97 297.672 1103.69 280.438 1110.37 263.975C1117.58 246.998 1125.29 230.535 1133.53 214.587C1144.84 191.951 1156.42 175.231 1168.25 164.427C1180.08 153.623 1192.43 147.193 1205.29 145.135C1209.41 144.106 1213.27 143.592 1216.87 143.592C1220.98 143.592 1224.84 143.592 1228.44 143.592C1237.19 143.592 1244.91 143.849 1251.59 144.363C1258.8 144.878 1263.94 145.392 1267.03 145.907C1275.77 146.421 1280.15 148.993 1280.15 153.623C1280.15 159.283 1276.29 162.627 1268.57 163.655C1263.43 164.17 1256.48 170.858 1247.74 183.719C1239.5 196.066 1230.76 210.728 1221.5 227.706C1207.09 254.457 1193.2 283.267 1179.83 314.135C1166.45 344.488 1156.93 375.098 1151.27 405.966C1150.76 409.567 1150.25 412.911 1149.73 415.997C1149.73 418.57 1149.73 421.142 1149.73 423.714C1149.73 436.576 1153.08 443.007 1159.76 443.007C1167.99 443.007 1176.48 438.634 1185.23 429.888C1193.97 421.142 1202.46 410.596 1210.69 398.249C1217.9 387.445 1225.1 375.355 1232.3 361.979C1239.5 348.603 1245.93 336.256 1251.59 324.938C1257.25 313.106 1261.37 304.874 1263.94 300.244C1265.48 297.157 1267.54 295.614 1270.11 295.614C1273.2 295.614 1276.03 297.929 1278.6 302.559C1281.18 306.675 1281.43 310.791 1279.37 314.906C1269.6 333.941 1259.05 354.262 1247.74 375.87C1236.42 397.477 1224.07 417.026 1210.69 434.518C1188.06 463.842 1161.82 478.504 1131.98 478.504Z" fill="#B0A780"/>
<path d="M97.1122 544.164C94.0886 546.065 91.3241 547.706 88.8188 549.089C86.3135 550.384 83.8082 551.421 81.3029 552.199C78.7975 553.062 76.2058 553.667 73.5278 554.013C70.8497 554.445 67.9124 554.661 64.716 554.661C56.6817 554.661 49.4682 553.581 43.0753 551.421C36.7689 549.175 31.4127 546.151 27.0068 542.35C22.6873 538.463 19.3613 533.927 17.0288 528.744C14.6963 523.474 13.53 517.772 13.53 511.639C13.53 505.418 14.6963 499.673 17.0288 494.404C19.4477 489.134 22.9033 484.642 27.3956 480.927C31.8878 477.126 37.3736 474.189 43.8528 472.115C50.4185 469.955 57.8912 468.876 66.271 468.876C72.4047 468.876 77.9768 469.221 82.9875 469.912C88.0845 470.517 92.7927 471.294 97.1122 472.245V468.098C97.1122 464.729 96.4643 461.835 95.1684 459.416C93.8726 456.911 92.0584 454.88 89.7259 453.325C87.3933 451.684 84.5857 450.518 81.3029 449.827C78.02 449.049 74.4349 448.66 70.5473 448.66C62.4267 448.66 55.2563 449.481 49.0362 451.122C42.9026 452.677 36.9849 454.967 31.2831 457.99L18.843 432.851C27.6547 426.804 36.8553 422.182 46.4445 418.985C56.1202 415.789 66.3574 414.191 77.1561 414.191C85.536 414.191 93.2678 415.141 100.352 417.042C107.522 418.856 113.656 421.879 118.753 426.113C123.85 430.259 127.824 435.702 130.675 442.44C133.612 449.179 135.081 457.386 135.081 467.061V515.915H153.093V551.421H97.1122V544.164ZM67.5669 524.079C73.7005 524.079 79.2727 523.085 84.2833 521.098C89.2939 519.111 93.5702 516.692 97.1122 513.841V496.736H66.0118C64.0249 496.736 62.0811 497.039 60.1805 497.643C58.28 498.248 56.5522 499.112 54.9971 500.235C53.5285 501.358 52.3191 502.74 51.3688 504.382C50.5049 506.023 50.0729 507.924 50.0729 510.083C50.0729 514.057 51.4984 517.383 54.3492 520.062C57.2865 522.74 61.6924 524.079 67.5669 524.079Z" fill="#4B572A"/>
<path d="M307.553 466.025H271.139V452.159C267.597 452.159 264.358 452.418 261.421 452.937C258.483 453.369 255.892 454.146 253.645 455.269C251.486 456.392 249.628 457.947 248.073 459.934C246.605 461.921 245.568 464.383 244.963 467.32V515.915H272.306V551.421H184.706V515.915H204.792V452.677H184.965V417.171H244.704V426.631C248.505 423.607 252.782 421.275 257.533 419.633C262.284 417.992 267.468 417.171 273.083 417.171C278.785 417.171 284.659 417.214 290.707 417.301C296.754 417.387 302.369 417.43 307.553 417.43V466.025Z" fill="#4B572A"/>
<path d="M334.89 417.171H395.147V515.915H413.807V551.421H334.89V515.915H355.105V452.677H334.89V417.171ZM353.032 373.89C353.032 370.693 353.593 367.713 354.716 364.949C355.926 362.098 357.567 359.636 359.641 357.562C361.714 355.489 364.133 353.847 366.897 352.638C369.748 351.429 372.815 350.824 376.098 350.824C379.208 350.824 382.145 351.429 384.91 352.638C387.674 353.847 390.093 355.489 392.166 357.562C394.24 359.636 395.881 362.098 397.091 364.949C398.3 367.713 398.905 370.693 398.905 373.89C398.905 377.086 398.3 380.11 397.091 382.961C395.881 385.725 394.24 388.144 392.166 390.218C390.093 392.291 387.674 393.932 384.91 395.142C382.145 396.351 379.208 396.956 376.098 396.956C372.815 396.956 369.748 396.351 366.897 395.142C364.133 393.932 361.714 392.291 359.641 390.218C357.567 388.144 355.926 385.725 354.716 382.961C353.593 380.11 353.032 377.086 353.032 373.89Z" fill="#4B572A"/>
<path d="M441.533 483.778C441.533 474.016 443.304 464.858 446.846 456.306C450.388 447.753 455.312 440.28 461.619 433.888C467.925 427.495 475.441 422.441 484.166 418.726C492.892 415.011 502.481 413.154 512.934 413.154C523.387 413.154 532.977 415.011 541.702 418.726C550.514 422.441 558.073 427.495 564.379 433.888C570.686 440.28 575.567 447.753 579.022 456.306C582.564 464.858 584.336 474.016 584.336 483.778C584.336 493.54 582.608 502.74 579.152 511.379C575.783 519.932 570.945 527.448 564.639 533.927C558.419 540.32 550.903 545.374 542.091 549.089C533.365 552.803 523.647 554.661 512.934 554.661C502.136 554.661 492.33 552.803 483.519 549.089C474.793 545.374 467.32 540.32 461.1 533.927C454.88 527.534 450.042 520.062 446.587 511.509C443.218 502.87 441.533 493.626 441.533 483.778ZM480.279 483.778C480.279 488.875 481.143 493.583 482.871 497.903C484.598 502.136 486.931 505.807 489.868 508.917C492.892 512.027 496.347 514.446 500.235 516.174C504.209 517.902 508.442 518.766 512.934 518.766C517.513 518.766 521.746 517.945 525.634 516.304C529.607 514.576 533.02 512.157 535.871 509.047C538.808 505.937 541.097 502.265 542.739 498.032C544.38 493.713 545.201 488.961 545.201 483.778C545.201 478.422 544.38 473.584 542.739 469.264C541.097 464.945 538.808 461.273 535.871 458.25C533.02 455.226 529.607 452.937 525.634 451.382C521.746 449.74 517.513 448.963 512.934 449.049C508.442 448.963 504.209 449.74 500.235 451.382C496.347 452.937 492.892 455.226 489.868 458.25C486.931 461.273 484.598 464.945 482.871 469.264C481.143 473.584 480.279 478.422 480.279 483.778Z" fill="#4B572A"/>
<path d="M750.323 544.164C747.3 546.065 744.535 547.706 742.03 549.089C739.524 550.384 737.019 551.421 734.514 552.199C732.009 553.062 729.417 553.667 726.739 554.013C724.061 554.445 721.123 554.661 717.927 554.661C709.893 554.661 702.679 553.581 696.286 551.421C689.98 549.175 684.624 546.151 680.218 542.35C675.898 538.463 672.572 533.927 670.24 528.744C667.907 523.474 666.741 517.772 666.741 511.639C666.741 505.418 667.907 499.673 670.24 494.404C672.659 489.134 676.114 484.642 680.607 480.927C685.099 477.126 690.585 474.189 697.064 472.115C703.629 469.955 711.102 468.876 719.482 468.876C725.616 468.876 731.188 469.221 736.198 469.912C741.295 470.517 746.004 471.294 750.323 472.245V468.098C750.323 464.729 749.675 461.835 748.379 459.416C747.084 456.911 745.269 454.88 742.937 453.325C740.604 451.684 737.797 450.518 734.514 449.827C731.231 449.049 727.646 448.66 723.758 448.66C715.638 448.66 708.467 449.481 702.247 451.122C696.114 452.677 690.196 454.967 684.494 457.99L672.054 432.851C680.866 426.804 690.066 422.182 699.656 418.985C709.331 415.789 719.568 414.191 730.367 414.191C738.747 414.191 746.479 415.141 753.563 417.042C760.733 418.856 766.867 421.879 771.964 426.113C777.061 430.259 781.035 435.702 783.886 442.44C786.823 449.179 788.292 457.386 788.292 467.061V515.915H806.304V551.421H750.323V544.164ZM720.778 524.079C726.912 524.079 732.484 523.085 737.494 521.098C742.505 519.111 746.781 516.692 750.323 513.841V496.736H719.223C717.236 496.736 715.292 497.039 713.392 497.643C711.491 498.248 709.763 499.112 708.208 500.235C706.74 501.358 705.53 502.74 704.58 504.382C703.716 506.023 703.284 507.924 703.284 510.083C703.284 514.057 704.709 517.383 707.56 520.062C710.498 522.74 714.903 524.079 720.778 524.079Z" fill="#4B572A"/>
<path d="M844.008 417.171H902.58V419.115C906.727 417.301 910.96 415.875 915.279 414.839C919.599 413.716 924.048 413.154 928.627 413.154C938.475 413.154 947.632 415.011 956.099 418.726C964.565 422.441 971.908 427.495 978.128 433.888C984.348 440.28 989.186 447.753 992.642 456.306C996.184 464.858 997.955 473.929 997.955 483.519C997.955 493.194 996.227 502.308 992.771 510.861C989.402 519.414 984.651 526.886 978.517 533.279C972.383 539.586 965.04 544.596 956.487 548.311C948.021 551.939 938.734 553.754 928.627 553.754C922.925 553.754 917.612 553.192 912.688 552.069C907.764 551.032 903.012 549.52 898.433 547.533V576.949H924.091V612.455H836.492V576.949H858.521V452.677H844.008V417.171ZM925.776 448.919C920.333 448.919 915.236 450.345 910.485 453.196C905.733 456.047 901.716 460.064 898.433 465.247V503.086C901.198 507.492 904.956 511.077 909.707 513.841C914.459 516.606 919.815 517.988 925.776 517.988C930.182 517.988 934.372 517.167 938.346 515.526C942.319 513.798 945.775 511.423 948.712 508.399C951.65 505.289 953.982 501.66 955.71 497.514C957.438 493.281 958.302 488.702 958.302 483.778C958.302 478.335 957.438 473.454 955.71 469.135C954.068 464.815 951.779 461.187 948.842 458.25C945.905 455.226 942.449 452.937 938.475 451.382C934.501 449.74 930.268 448.919 925.776 448.919Z" fill="#4B572A"/>
<path d="M1026.59 417.171H1085.16V419.115C1089.31 417.301 1093.54 415.875 1097.86 414.839C1102.18 413.716 1106.63 413.154 1111.21 413.154C1121.05 413.154 1130.21 415.011 1138.68 418.726C1147.14 422.441 1154.49 427.495 1160.71 433.888C1166.93 440.28 1171.77 447.753 1175.22 456.306C1178.76 464.858 1180.53 473.929 1180.53 483.519C1180.53 493.194 1178.81 502.308 1175.35 510.861C1171.98 519.414 1167.23 526.886 1161.1 533.279C1154.96 539.586 1147.62 544.596 1139.07 548.311C1130.6 551.939 1121.31 553.754 1111.21 553.754C1105.5 553.754 1100.19 553.192 1095.27 552.069C1090.34 551.032 1085.59 549.52 1081.01 547.533V576.949H1106.67V612.455H1019.07V576.949H1041.1V452.677H1026.59V417.171ZM1108.36 448.919C1102.91 448.919 1097.82 450.345 1093.06 453.196C1088.31 456.047 1084.3 460.064 1081.01 465.247V503.086C1083.78 507.492 1087.54 511.077 1092.29 513.841C1097.04 516.606 1102.39 517.988 1108.36 517.988C1112.76 517.988 1116.95 517.167 1120.93 515.526C1124.9 513.798 1128.35 511.423 1131.29 508.399C1134.23 505.289 1136.56 501.66 1138.29 497.514C1140.02 493.281 1140.88 488.702 1140.88 483.778C1140.88 478.335 1140.02 473.454 1138.29 469.135C1136.65 464.815 1134.36 461.187 1131.42 458.25C1128.48 455.226 1125.03 452.937 1121.05 451.382C1117.08 449.74 1112.85 448.919 1108.36 448.919Z" fill="#4B572A"/>
</svg>
